{
	"asset":{
		"generator":"Khronos glTF Blender I/O v3.6.28",
		"version":"2.0"
	},
	"scene":0,
	"scenes":[
		{
			"name":"Scene",
			"nodes":[
				0
			]
		}
	],
	"nodes":[
		{
			"mesh":0,
			"name":"PBR___Metallic_Roughness_Alpha_blend:hammer_LP",
			"rotation":[
				-1,
				0,
				0,
				4.371138828673793e-08
			],
			"scale":[
				0.009999999776482582,
				0.009999999776482582,
				0.009999999776482582
			]
		}
	],
	"materials":[
		{
			"doubleSided":true,
			"name":"lambert1",
			"pbrMetallicRoughness":{
				"baseColorFactor":[
					0.5,
					0.5,
					0.5,
					1
				],
				"metallicFactor":0,
				"roughnessFactor":0.5527864098548889
			}
		}
	],
	"meshes":[
		{
			"name":"Mesh.008",
			"primitives":[
				{
					"attributes":{
						"POSITION":0,
						"NORMAL":1,
						"TEXCOORD_0":2
					},
					"indices":3,
					"material":0
				}
			]
		}
	],
	"accessors":[
		{
			"bufferView":0,
			"componentType":5126,
			"count":7291,
			"max":[
				17.959016799926758,
				11.60714054107666,
				2.4891228675842285
			],
			"min":[
				-15.448640823364258,
				-7.607899188995361,
				-2.4879608154296875
			],
			"type":"VEC3"
		},
		{
			"bufferView":1,
			"componentType":5126,
			"count":7291,
			"type":"VEC3"
		},
		{
			"bufferView":2,
			"componentType":5126,
			"count":7291,
			"type":"VEC2"
		},
		{
			"bufferView":3,
			"componentType":5123,
			"count":23433,
			"type":"SCALAR"
		}
	],
	"bufferViews":[
		{
			"buffer":0,
			"byteLength":87492,
			"byteOffset":0,
			"target":34962
		},
		{
			"buffer":0,
			"byteLength":87492,
			"byteOffset":87492,
			"target":34962
		},
		{
			"buffer":0,
			"byteLength":58328,
			"byteOffset":174984,
			"target":34962
		},
		{
			"buffer":0,
			"byteLength":46866,
			"byteOffset":233312,
			"target":34963
		}
	],
	"buffers":[
		{
			"byteLength":280180,
			"uri":"data:application/octet-stream;base64,"
		}
	]
}
