{
	"asset":{
		"generator":"Khronos glTF Blender I/O v5.0.21",
		"version":"2.0"
	},
	"scene":0,
	"scenes":[
		{
			"name":"Scene",
			"nodes":[
				0,
				1,
				2,
				3,
				4,
				5,
				6,
				7,
				8,
				9,
				10,
				11,
				12,
				13,
				14,
				15
			]
		}
	],
	"nodes":[
		{
			"mesh":0,
			"name":"Cube"
		},
		{
			"mesh":1,
			"name":"Plane"
		},
		{
			"mesh":2,
			"name":"Cube.001"
		},
		{
			"mesh":3,
			"name":"Cube.002"
		},
		{
			"mesh":4,
			"name":"Cube.003"
		},
		{
			"mesh":5,
			"name":"Cube.004"
		},
		{
			"mesh":6,
			"name":"Cube.005"
		},
		{
			"mesh":7,
			"name":"Cube.006"
		},
		{
			"mesh":8,
			"name":"Cube.007"
		},
		{
			"mesh":9,
			"name":"Cube.008"
		},
		{
			"mesh":10,
			"name":"Cube.009"
		},
		{
			"mesh":11,
			"name":"Cube.010"
		},
		{
			"mesh":12,
			"name":"Cube.011"
		},
		{
			"mesh":13,
			"name":"Sphere"
		},
		{
			"mesh":14,
			"name":"Sphere.001"
		},
		{
			"mesh":15,
			"name":"Sphere.002"
		}
	],
	"materials":[
		{
			"doubleSided":true,
			"name":"Material.001",
			"pbrMetallicRoughness":{
				"baseColorTexture":{
					"index":0
				},
				"metallicFactor":0,
				"roughnessFactor":0.5
			}
		},
		{
			"doubleSided":true,
			"name":"Material",
			"pbrMetallicRoughness":{
				"baseColorFactor":[
					0.8000074625015259,
					0.2111733853816986,
					0.3456859290599823,
					1
				],
				"metallicFactor":0,
				"roughnessFactor":0.5
			}
		}
	],
	"meshes":[
		{
			"name":"Cube.006",
			"primitives":[
				{
					"attributes":{
						"POSITION":0,
						"NORMAL":1,
						"TEXCOORD_0":2
					},
					"indices":3
				}
			]
		},
		{
			"name":"Plane",
			"primitives":[
				{
					"attributes":{
						"POSITION":4,
						"NORMAL":5,
						"TEXCOORD_0":6
					},
					"indices":7,
					"material":0
				}
			]
		},
		{
			"name":"Cube.001",
			"primitives":[
				{
					"attributes":{
						"POSITION":8,
						"NORMAL":9,
						"TEXCOORD_0":10
					},
					"indices":3
				}
			]
		},
		{
			"name":"Cube.002",
			"primitives":[
				{
					"attributes":{
						"POSITION":11,
						"NORMAL":12,
						"TEXCOORD_0":13
					},
					"indices":3
				}
			]
		},
		{
			"name":"Cube.003",
			"primitives":[
				{
					"attributes":{
						"POSITION":14,
						"NORMAL":15,
						"TEXCOORD_0":16
					},
					"indices":3
				}
			]
		},
		{
			"name":"Cube.004",
			"primitives":[
				{
					"attributes":{
						"POSITION":17,
						"NORMAL":18,
						"TEXCOORD_0":19
					},
					"indices":3
				}
			]
		},
		{
			"name":"Cube.005",
			"primitives":[
				{
					"attributes":{
						"POSITION":20,
						"NORMAL":21,
						"TEXCOORD_0":22
					},
					"indices":3
				}
			]
		},
		{
			"name":"Cube.007",
			"primitives":[
				{
					"attributes":{
						"POSITION":23,
						"NORMAL":24,
						"TEXCOORD_0":25
					},
					"indices":3
				}
			]
		},
		{
			"name":"Cube.008",
			"primitives":[
				{
					"attributes":{
						"POSITION":26,
						"NORMAL":27,
						"TEXCOORD_0":28
					},
					"indices":3
				}
			]
		},
		{
			"name":"Cube.009",
			"primitives":[
				{
					"attributes":{
						"POSITION":29,
						"NORMAL":30,
						"TEXCOORD_0":31
					},
					"indices":32
				}
			]
		},
		{
			"name":"Cube.010",
			"primitives":[
				{
					"attributes":{
						"POSITION":33,
						"NORMAL":34,
						"TEXCOORD_0":35
					},
					"indices":32
				}
			]
		},
		{
			"name":"Cube.011",
			"primitives":[
				{
					"attributes":{
						"POSITION":36,
						"NORMAL":37,
						"TEXCOORD_0":38
					},
					"indices":32
				}
			]
		},
		{
			"name":"Cube.012",
			"primitives":[
				{
					"attributes":{
						"POSITION":39,
						"NORMAL":40,
						"TEXCOORD_0":41
					},
					"indices":32
				}
			]
		},
		{
			"name":"Sphere",
			"primitives":[
				{
					"attributes":{
						"POSITION":42,
						"NORMAL":43,
						"TEXCOORD_0":44
					},
					"indices":45
				}
			]
		},
		{
			"name":"Sphere.001",
			"primitives":[
				{
					"attributes":{
						"POSITION":46,
						"NORMAL":47,
						"TEXCOORD_0":48
					},
					"indices":49
				}
			]
		},
		{
			"name":"Sphere.002",
			"primitives":[
				{
					"attributes":{
						"POSITION":50,
						"NORMAL":51,
						"TEXCOORD_0":52
					},
					"indices":53,
					"material":1
				}
			]
		}
	],
	"textures":[
		{
			"sampler":0,
			"source":0
		}
	],
	"images":[
		{
			"mimeType":"image/png",
			"name":"earth.png",
			"uri":"../../../Users/Usuario/Pictures/earth.png"
		}
	],
	"accessors":[
		{
			"bufferView":0,
			"componentType":5126,
			"count":24,
			"max":[
				-7,
				8,
				-7
			],
			"min":[
				-9,
				0,
				-9
			],
			"type":"VEC3"
		},
		{
			"bufferView":1,
			"componentType":5126,
			"count":24,
			"type":"VEC3"
		},
		{
			"bufferView":2,
			"componentType":5126,
			"count":24,
			"type":"VEC2"
		},
		{
			"bufferView":3,
			"componentType":5123,
			"count":36,
			"type":"SCALAR"
		},
		{
			"bufferView":4,
			"componentType":5126,
			"count":4,
			"max":[
				10,
				0,
				10
			],
			"min":[
				-10,
				0,
				-10
			],
			"type":"VEC3"
		},
		{
			"bufferView":5,
			"componentType":5126,
			"count":4,
			"type":"VEC3"
		},
		{
			"bufferView":6,
			"componentType":5126,
			"count":4,
			"type":"VEC2"
		},
		{
			"bufferView":7,
			"componentType":5123,
			"count":6,
			"type":"SCALAR"
		},
		{
			"bufferView":8,
			"componentType":5126,
			"count":24,
			"max":[
				-1,
				8,
				-7
			],
			"min":[
				-3,
				0,
				-9
			],
			"type":"VEC3"
		},
		{
			"bufferView":9,
			"componentType":5126,
			"count":24,
			"type":"VEC3"
		},
		{
			"bufferView":10,
			"componentType":5126,
			"count":24,
			"type":"VEC2"
		},
		{
			"bufferView":11,
			"componentType":5126,
			"count":24,
			"max":[
				-7,
				8,
				0
			],
			"min":[
				-9,
				0,
				-2
			],
			"type":"VEC3"
		},
		{
			"bufferView":12,
			"componentType":5126,
			"count":24,
			"type":"VEC3"
		},
		{
			"bufferView":13,
			"componentType":5126,
			"count":24,
			"type":"VEC2"
		},
		{
			"bufferView":14,
			"componentType":5126,
			"count":24,
			"max":[
				-1,
				8,
				0
			],
			"min":[
				-3,
				0,
				-2
			],
			"type":"VEC3"
		},
		{
			"bufferView":15,
			"componentType":5126,
			"count":24,
			"type":"VEC3"
		},
		{
			"bufferView":16,
			"componentType":5126,
			"count":24,
			"type":"VEC2"
		},
		{
			"bufferView":17,
			"componentType":5126,
			"count":24,
			"max":[
				3,
				8,
				2
			],
			"min":[
				1,
				0,
				0
			],
			"type":"VEC3"
		},
		{
			"bufferView":18,
			"componentType":5126,
			"count":24,
			"type":"VEC3"
		},
		{
			"bufferView":19,
			"componentType":5126,
			"count":24,
			"type":"VEC2"
		},
		{
			"bufferView":20,
			"componentType":5126,
			"count":24,
			"max":[
				9,
				8,
				2
			],
			"min":[
				7,
				0,
				0
			],
			"type":"VEC3"
		},
		{
			"bufferView":21,
			"componentType":5126,
			"count":24,
			"type":"VEC3"
		},
		{
			"bufferView":22,
			"componentType":5126,
			"count":24,
			"type":"VEC2"
		},
		{
			"bufferView":23,
			"componentType":5126,
			"count":24,
			"max":[
				3,
				8,
				9
			],
			"min":[
				1,
				0,
				7
			],
			"type":"VEC3"
		},
		{
			"bufferView":24,
			"componentType":5126,
			"count":24,
			"type":"VEC3"
		},
		{
			"bufferView":25,
			"componentType":5126,
			"count":24,
			"type":"VEC2"
		},
		{
			"bufferView":26,
			"componentType":5126,
			"count":24,
			"max":[
				9,
				8,
				9
			],
			"min":[
				7,
				0,
				7
			],
			"type":"VEC3"
		},
		{
			"bufferView":27,
			"componentType":5126,
			"count":24,
			"type":"VEC3"
		},
		{
			"bufferView":28,
			"componentType":5126,
			"count":24,
			"type":"VEC2"
		},
		{
			"bufferView":29,
			"componentType":5126,
			"count":24,
			"max":[
				-4.000000953674316,
				8,
				9
			],
			"min":[
				-6.000000953674316,
				0,
				7
			],
			"type":"VEC3"
		},
		{
			"bufferView":30,
			"componentType":5126,
			"count":24,
			"type":"VEC3"
		},
		{
			"bufferView":31,
			"componentType":5126,
			"count":24,
			"type":"VEC2"
		},
		{
			"bufferView":32,
			"componentType":5123,
			"count":36,
			"type":"SCALAR"
		},
		{
			"bufferView":33,
			"componentType":5126,
			"count":24,
			"max":[
				-4,
				8,
				2.9999990463256836
			],
			"min":[
				-6,
				0,
				0.999998927116394
			],
			"type":"VEC3"
		},
		{
			"bufferView":34,
			"componentType":5126,
			"count":24,
			"type":"VEC3"
		},
		{
			"bufferView":35,
			"componentType":5126,
			"count":24,
			"type":"VEC2"
		},
		{
			"bufferView":36,
			"componentType":5126,
			"count":24,
			"max":[
				6,
				8,
				-0.999998927116394
			],
			"min":[
				4,
				0,
				-2.9999990463256836
			],
			"type":"VEC3"
		},
		{
			"bufferView":37,
			"componentType":5126,
			"count":24,
			"type":"VEC3"
		},
		{
			"bufferView":38,
			"componentType":5126,
			"count":24,
			"type":"VEC2"
		},
		{
			"bufferView":39,
			"componentType":5126,
			"count":24,
			"max":[
				6.000000953674316,
				8,
				-7
			],
			"min":[
				4.000000953674316,
				0,
				-9
			],
			"type":"VEC3"
		},
		{
			"bufferView":40,
			"componentType":5126,
			"count":24,
			"type":"VEC3"
		},
		{
			"bufferView":41,
			"componentType":5126,
			"count":24,
			"type":"VEC2"
		},
		{
			"bufferView":42,
			"componentType":5126,
			"count":1984,
			"max":[
				-3.7425458431243896,
				4.456962585449219,
				0.4223063588142395
			],
			"min":[
				-5.742544651031494,
				2.4569623470306396,
				-1.577692985534668
			],
			"type":"VEC3"
		},
		{
			"bufferView":43,
			"componentType":5126,
			"count":1984,
			"type":"VEC3"
		},
		{
			"bufferView":44,
			"componentType":5126,
			"count":1984,
			"type":"VEC2"
		},
		{
			"bufferView":45,
			"componentType":5123,
			"count":2880,
			"type":"SCALAR"
		},
		{
			"bufferView":46,
			"componentType":5126,
			"count":1984,
			"max":[
				2.9104440212249756,
				4.456962585449219,
				-3.246917963027954
			],
			"min":[
				0.9104452133178711,
				2.4569623470306396,
				-5.246917247772217
			],
			"type":"VEC3"
		},
		{
			"bufferView":47,
			"componentType":5126,
			"count":1984,
			"type":"VEC3"
		},
		{
			"bufferView":48,
			"componentType":5126,
			"count":1984,
			"type":"VEC2"
		},
		{
			"bufferView":49,
			"componentType":5123,
			"count":2880,
			"type":"SCALAR"
		},
		{
			"bufferView":50,
			"componentType":5126,
			"count":1984,
			"max":[
				5.934529781341553,
				4.456962585449219,
				5.2608442306518555
			],
			"min":[
				3.9345312118530273,
				2.4569623470306396,
				3.2608447074890137
			],
			"type":"VEC3"
		},
		{
			"bufferView":51,
			"componentType":5126,
			"count":1984,
			"type":"VEC3"
		},
		{
			"bufferView":52,
			"componentType":5126,
			"count":1984,
			"type":"VEC2"
		},
		{
			"bufferView":53,
			"componentType":5123,
			"count":2880,
			"type":"SCALAR"
		}
	],
	"bufferViews":[
		{
			"buffer":0,
			"byteLength":288,
			"byteOffset":0,
			"target":34962
		},
		{
			"buffer":0,
			"byteLength":288,
			"byteOffset":288,
			"target":34962
		},
		{
			"buffer":0,
			"byteLength":192,
			"byteOffset":576,
			"target":34962
		},
		{
			"buffer":0,
			"byteLength":72,
			"byteOffset":768,
			"target":34963
		},
		{
			"buffer":0,
			"byteLength":48,
			"byteOffset":840,
			"target":34962
		},
		{
			"buffer":0,
			"byteLength":48,
			"byteOffset":888,
			"target":34962
		},
		{
			"buffer":0,
			"byteLength":32,
			"byteOffset":936,
			"target":34962
		},
		{
			"buffer":0,
			"byteLength":12,
			"byteOffset":968,
			"target":34963
		},
		{
			"buffer":0,
			"byteLength":288,
			"byteOffset":980,
			"target":34962
		},
		{
			"buffer":0,
			"byteLength":288,
			"byteOffset":1268,
			"target":34962
		},
		{
			"buffer":0,
			"byteLength":192,
			"byteOffset":1556,
			"target":34962
		},
		{
			"buffer":0,
			"byteLength":288,
			"byteOffset":1748,
			"target":34962
		},
		{
			"buffer":0,
			"byteLength":288,
			"byteOffset":2036,
			"target":34962
		},
		{
			"buffer":0,
			"byteLength":192,
			"byteOffset":2324,
			"target":34962
		},
		{
			"buffer":0,
			"byteLength":288,
			"byteOffset":2516,
			"target":34962
		},
		{
			"buffer":0,
			"byteLength":288,
			"byteOffset":2804,
			"target":34962
		},
		{
			"buffer":0,
			"byteLength":192,
			"byteOffset":3092,
			"target":34962
		},
		{
			"buffer":0,
			"byteLength":288,
			"byteOffset":3284,
			"target":34962
		},
		{
			"buffer":0,
			"byteLength":288,
			"byteOffset":3572,
			"target":34962
		},
		{
			"buffer":0,
			"byteLength":192,
			"byteOffset":3860,
			"target":34962
		},
		{
			"buffer":0,
			"byteLength":288,
			"byteOffset":4052,
			"target":34962
		},
		{
			"buffer":0,
			"byteLength":288,
			"byteOffset":4340,
			"target":34962
		},
		{
			"buffer":0,
			"byteLength":192,
			"byteOffset":4628,
			"target":34962
		},
		{
			"buffer":0,
			"byteLength":288,
			"byteOffset":4820,
			"target":34962
		},
		{
			"buffer":0,
			"byteLength":288,
			"byteOffset":5108,
			"target":34962
		},
		{
			"buffer":0,
			"byteLength":192,
			"byteOffset":5396,
			"target":34962
		},
		{
			"buffer":0,
			"byteLength":288,
			"byteOffset":5588,
			"target":34962
		},
		{
			"buffer":0,
			"byteLength":288,
			"byteOffset":5876,
			"target":34962
		},
		{
			"buffer":0,
			"byteLength":192,
			"byteOffset":6164,
			"target":34962
		},
		{
			"buffer":0,
			"byteLength":288,
			"byteOffset":6356,
			"target":34962
		},
		{
			"buffer":0,
			"byteLength":288,
			"byteOffset":6644,
			"target":34962
		},
		{
			"buffer":0,
			"byteLength":192,
			"byteOffset":6932,
			"target":34962
		},
		{
			"buffer":0,
			"byteLength":72,
			"byteOffset":7124,
			"target":34963
		},
		{
			"buffer":0,
			"byteLength":288,
			"byteOffset":7196,
			"target":34962
		},
		{
			"buffer":0,
			"byteLength":288,
			"byteOffset":7484,
			"target":34962
		},
		{
			"buffer":0,
			"byteLength":192,
			"byteOffset":7772,
			"target":34962
		},
		{
			"buffer":0,
			"byteLength":288,
			"byteOffset":7964,
			"target":34962
		},
		{
			"buffer":0,
			"byteLength":288,
			"byteOffset":8252,
			"target":34962
		},
		{
			"buffer":0,
			"byteLength":192,
			"byteOffset":8540,
			"target":34962
		},
		{
			"buffer":0,
			"byteLength":288,
			"byteOffset":8732,
			"target":34962
		},
		{
			"buffer":0,
			"byteLength":288,
			"byteOffset":9020,
			"target":34962
		},
		{
			"buffer":0,
			"byteLength":192,
			"byteOffset":9308,
			"target":34962
		},
		{
			"buffer":0,
			"byteLength":23808,
			"byteOffset":9500,
			"target":34962
		},
		{
			"buffer":0,
			"byteLength":23808,
			"byteOffset":33308,
			"target":34962
		},
		{
			"buffer":0,
			"byteLength":15872,
			"byteOffset":57116,
			"target":34962
		},
		{
			"buffer":0,
			"byteLength":5760,
			"byteOffset":72988,
			"target":34963
		},
		{
			"buffer":0,
			"byteLength":23808,
			"byteOffset":78748,
			"target":34962
		},
		{
			"buffer":0,
			"byteLength":23808,
			"byteOffset":102556,
			"target":34962
		},
		{
			"buffer":0,
			"byteLength":15872,
			"byteOffset":126364,
			"target":34962
		},
		{
			"buffer":0,
			"byteLength":5760,
			"byteOffset":142236,
			"target":34963
		},
		{
			"buffer":0,
			"byteLength":23808,
			"byteOffset":147996,
			"target":34962
		},
		{
			"buffer":0,
			"byteLength":23808,
			"byteOffset":171804,
			"target":34962
		},
		{
			"buffer":0,
			"byteLength":15872,
			"byteOffset":195612,
			"target":34962
		},
		{
			"buffer":0,
			"byteLength":5760,
			"byteOffset":211484,
			"target":34963
		}
	],
	"samplers":[
		{
			"magFilter":9729,
			"minFilter":9987
		}
	],
	"buffers":[
		{
			"byteLength":217244,
			"uri":"level0.bin"
		}
	]
}
